<?xml version="1.0" encoding="UTF-8"?>
<!DOCTYPE svg PUBLIC "-//W3C//DTD SVG 1.1//EN" "http://www.w3.org/Graphics/SVG/1.1/DTD/svg11.dtd">
<svg version="1.1" xmlns="http://www.w3.org/2000/svg" xmlns:xlink="http://www.w3.org/1999/xlink" x="0" y="0" width="192" height="192" viewBox="0, 0, 192, 192">
  <title>Adventure Lookup</title>
  <defs>
    <clipPath id="Clip_1">
      <path d="M97.55,8.1 C101.084,9.041 99.636,8.444 102,9.608 L167.818,47.608 C171.531,49.751 173.818,53.713 173.818,58 L173.818,134 C173.818,138.287 171.531,142.249 167.818,144.392 L102,182.392 C98.287,184.536 93.713,184.536 90,182.392 L24.182,144.392 C20.469,142.249 18.182,138.287 18.182,134 L18.182,58 C18.182,53.713 20.469,49.751 24.182,47.608 L90,9.608 C92.866,7.977 94.408,8.1 97.55,8.1 z"/>
    </clipPath>
    <filter id="InnerShadow_2">
      <feGaussianBlur in="SourceAlpha" stdDeviation="0"/>
      <feOffset dx="0" dy="1" result="offsetblur"/>
      <feFlood flood-color="#FFFFFF"/>
      <feComposite in2="offsetblur" operator="in"/>
    </filter>
    <clipPath id="Clip_3">
      <path d="M97.55,8.1 C101.084,9.041 99.636,8.444 102,9.608 L167.818,47.608 C171.531,49.751 173.818,53.713 173.818,58 L173.818,134 C173.818,138.287 171.531,142.249 167.818,144.392 L102,182.392 C98.287,184.536 93.713,184.536 90,182.392 L24.182,144.392 C20.469,142.249 18.182,138.287 18.182,134 L18.182,58 C18.182,53.713 20.469,49.751 24.182,47.608 L90,9.608 C92.866,7.977 94.407,8.1 97.55,8.1 z"/>
    </clipPath>
    <filter id="InnerShadow_4">
      <feGaussianBlur in="SourceAlpha" stdDeviation="0"/>
      <feOffset dx="0" dy="-1" result="offsetblur"/>
      <feFlood flood-color="#BF360C"/>
      <feComposite in2="offsetblur" operator="in"/>
    </filter>
    <filter id="Shadow_5">
      <feGaussianBlur in="SourceAlpha" stdDeviation="2"/>
      <feOffset dx="0" dy="4" result="offsetblur"/>
      <feFlood flood-color="#000000"/>
      <feComposite in2="offsetblur" operator="in"/>
    </filter>
    <clipPath id="Clip_6">
      <path d="M96,44.158 C124.72,44.158 148,67.438 148,96.158 C148,109.038 143.28,120.878 135.44,129.997 L137.68,132.158 L144,132.158 L183.92,172.158 L172,184.077 L132,144.158 L132,137.837 L129.84,135.598 C120.72,143.438 108.88,148.158 96,148.158 C67.28,148.158 44,124.878 44,96.158 C44,67.438 67.28,44.158 96,44.158 z M96,60.158 C76.08,60.158 60,76.238 60,96.158 C60,116.078 76.08,132.158 96,132.158 C115.92,132.158 132,116.078 132,96.158 C132,76.238 115.92,60.158 96,60.158 z"/>
    </clipPath>
    <filter id="InnerShadow_7">
      <feGaussianBlur in="SourceAlpha" stdDeviation="0"/>
      <feOffset dx="0" dy="-1" result="offsetblur"/>
      <feFlood flood-color="#000000"/>
      <feComposite in2="offsetblur" operator="in"/>
    </filter>
    <clipPath id="Clip_8">
      <path d="M96,44 C124.72,44 148,67.28 148,96 C148,108.88 143.28,120.72 135.44,129.84 L137.68,132 L144,132 L183.92,172 L172,183.92 L132,144 L132,137.68 L129.84,135.44 C120.72,143.28 108.88,148 96,148 C67.28,148 44,124.72 44,96 C44,67.28 67.28,44 96,44 z M96,60 C76.08,60 60,76.08 60,96 C60,115.92 76.08,132 96,132 C115.92,132 132,115.92 132,96 C132,76.08 115.92,60 96,60 z"/>
    </clipPath>
    <filter id="InnerShadow_9">
      <feGaussianBlur in="SourceAlpha" stdDeviation="0"/>
      <feOffset dx="0" dy="1" result="offsetblur"/>
      <feFlood flood-color="#FFFFFF"/>
      <feComposite in2="offsetblur" operator="in"/>
    </filter>
    <clipPath id="Clip_10">
      <path d="M67,66.215 L125,66.215 L125,125.785 L67,125.785 z M108,75.215 L84,75.215 L72,96 L84,116.785 L108,116.785 L120,96 L108,75.215 z"/>
    </clipPath>
    <filter id="Shadow_11">
      <feGaussianBlur in="SourceAlpha" stdDeviation="2"/>
      <feOffset dx="0" dy="4" result="offsetblur"/>
      <feFlood flood-color="#000000"/>
      <feComposite in2="offsetblur" operator="in"/>
    </filter>
    <clipPath id="Clip_12">
      <path d="M108,75.215 L120,96 L108,116.785 L84,116.785 L72,96 L84,75.215 L108,75.215 z"/>
    </clipPath>
    <filter id="InnerShadow_13">
      <feGaussianBlur in="SourceAlpha" stdDeviation="0"/>
      <feOffset dx="0" dy="1" result="offsetblur"/>
      <feFlood flood-color="#FFFFFF"/>
      <feComposite in2="offsetblur" operator="in"/>
    </filter>
    <clipPath id="Clip_14">
      <path d="M108,75.215 L120,96 L108,116.785 L84,116.785 L72,96 L84,75.215 L108,75.215 z"/>
    </clipPath>
    <filter id="InnerShadow_15">
      <feGaussianBlur in="SourceAlpha" stdDeviation="0"/>
      <feOffset dx="0" dy="-1" result="offsetblur"/>
      <feFlood flood-color="#BF360C"/>
      <feComposite in2="offsetblur" operator="in"/>
    </filter>
    <radialGradient id="Gradient_1" gradientUnits="userSpaceOnUse" cx="-0" cy="0" r="192">
      <stop offset="0" stop-color="#FFFFFF" stop-opacity="0.1"/>
      <stop offset="1" stop-color="#FFFFFF" stop-opacity="0"/>
    </radialGradient>
    <clipPath id="Silhouette">
      <path d="M97.55,8.1 C101.084,9.041 99.636,8.444 102,9.608 L167.818,47.608 C171.531,49.751 173.818,53.713 173.818,58 L173.818,134 C173.818,138.287 171.531,142.249 167.818,144.392 L160.503,148.615 L183.92,172.079 L172,183.999 L145.326,157.378 L102,182.392 C98.287,184.536 93.713,184.536 90,182.392 L24.182,144.392 C20.469,142.249 18.182,138.287 18.182,134 L18.182,58 C18.182,53.713 20.469,49.751 24.182,47.608 L90,9.608 C92.866,7.977 94.407,8.1 97.55,8.1 z"/>
    </clipPath>
  </defs>
  <g id="Adventure_Lookup_Logo">
    <g id="Outer_Hex_Outline">
      <path d="M90,9.608 C93.713,7.464 98.287,7.464 102,9.608 L167.818,47.608 C171.531,49.751 173.818,53.713 173.818,58 L173.818,134 C173.818,138.287 171.531,142.249 167.818,144.392 L102,182.392 C98.287,184.536 93.713,184.536 90,182.392 L24.182,144.392 C20.469,142.249 18.182,138.287 18.182,134 L18.182,58 C18.182,53.713 20.469,49.751 24.182,47.608 L90,9.608 z" fill="#FFC107"/>
      <path d="M17.182,6.098 L174.818,6.098 L174.818,186 L17.182,186 z M97.55,8.1 C94.408,8.1 92.866,7.977 90,9.608 L24.182,47.608 C20.469,49.751 18.182,53.713 18.182,58 L18.182,134 C18.182,138.287 20.469,142.249 24.182,144.392 L90,182.392 C93.713,184.536 98.287,184.536 102,182.392 L167.818,144.392 C171.531,142.249 173.818,138.287 173.818,134 L173.818,58 C173.818,53.713 171.531,49.751 167.818,47.608 L102,9.608 C99.636,8.444 101.084,9.041 97.55,8.1 z" clip-path="url(#Clip_1)" filter="url(#InnerShadow_2)" fill="rgba(0,0,0,0.2)"/>
    </g>
    <path d="M17.182,6.098 L174.818,6.098 L174.818,186 L17.182,186 z M97.55,8.1 C94.407,8.1 92.866,7.977 90,9.608 L24.182,47.608 C20.469,49.751 18.182,53.713 18.182,58 L18.182,134 C18.182,138.287 20.469,142.249 24.182,144.392 L90,182.392 C93.713,184.536 98.287,184.536 102,182.392 L167.818,144.392 C171.531,142.249 173.818,138.287 173.818,134 L173.818,58 C173.818,53.713 171.531,49.751 167.818,47.608 L102,9.608 C99.636,8.444 101.084,9.041 97.55,8.1 z" clip-path="url(#Clip_3)" filter="url(#InnerShadow_4)" fill="rgba(0,0,0,0.2)" id="Outer_Hex_Outline"/>
    <g id="Die_Faces">
      <path d="M140.929,134.909 L171.774,140.554 C170.965,142.271 169.341,143.373 167.818,144.392 L102,182.392 C99.707,183.521 101.084,182.959 97.78,183.838 L140.929,134.909 z" fill="#BF360C" fill-opacity="0.15"/>
      <path d="M51.071,134.909 L94.219,183.838 C90.916,182.959 92.293,183.521 90,182.392 L24.182,144.392 C22.572,143.455 21.161,142.173 20.226,140.554 L51.071,134.909 z" fill="#BF360C" fill-opacity="0.15"/>
      <path d="M140.929,134.909 L97.78,183.838 C96.635,184.17 95.369,184.144 94.219,183.838 L51.071,134.909 L140.929,134.909 z" fill="#BF360C" fill-opacity="0.1"/>
      <path d="M172.902,53.407 C173.851,56.923 173.644,55.376 173.818,58 L173.818,134 C173.809,136.873 173.134,138.198 171.774,140.554 L140.929,134.909 L172.902,53.407 z" fill="#BF360C" fill-opacity="0.05"/>
      <path d="M19.144,53.319 L51.071,134.909 L20.205,140.518 C18.581,137.706 19.293,139.317 18.289,135.594 L18.289,56.406 C19.109,53.366 18.582,54.294 19.144,53.319 z" fill="#BF360C" fill-opacity="0.05"/>
      <path d="M171.655,51.239 C172.069,51.957 172.484,52.675 172.898,53.393 C172.9,53.398 172.901,53.402 172.902,53.407 L140.929,134.909 L96,57.091 L171.655,51.239 z" fill="#FFFFFF" fill-opacity="0.05"/>
      <path d="M20.309,51.301 C45.537,53.261 70.769,55.171 96,57.091 L51.071,134.909 C40.445,107.712 29.685,80.566 19.132,53.339 L20.309,51.301 z" fill="#FFFFFF" fill-opacity="0.05"/>
      <path d="M97.551,8.1 C101.084,9.041 99.636,8.444 102,9.608 L167.818,47.608 C169.334,48.519 170.76,49.688 171.655,51.239 L96,57.091 L96,8.1 L97.551,8.1 z" fill="#FFFFFF" fill-opacity="0.1"/>
      <path d="M96,8.1 L96,57.091 L20.316,51.289 C20.922,50.138 21.811,49.194 22.924,48.45 L90.1,9.558 C92.237,8.36 93.627,8.1 96,8.1 z" fill="#FFFFFF" fill-opacity="0.15"/>
    </g>
    <g id="Magnifier">
      <g>
        <path d="M98.676,44.068 C126.469,45.958 147.301,68.328 148,96 C148,108.88 143.28,120.72 135.44,129.84 L137.68,132 L144,132 L144,132 L144,132 L183.92,172 L172,183.92 L132,144 L132,137.68 L129.84,135.44 C120.72,143.28 108.88,148 96,148 C67.28,148 44,124.72 44,96 C44,67.28 67.28,44 96,44 L98.676,44.068 z M96,60 L96,60 C76.08,60 60,76.08 60,96 C60,115.92 76.08,132 96,132 C115.92,132 132,115.92 132,96 C132,76.08 115.92,60 96,60 z" clip-path="url(#Silhouette)" filter="url(#Shadow_5)" fill="rgba(0,0,0,0.2)"/>
        <path d="M96,44 C124.72,44 148,67.28 148,96 C148,108.88 143.28,120.72 135.44,129.84 L137.68,132 L144,132 L144,132 L144,132 L183.92,172 L172,183.92 L132,144 L132,137.68 L129.84,135.44 C120.72,143.28 108.88,148 96,148 C67.28,148 44,124.72 44,96 C44,67.28 67.28,44 96,44 z M96,60 C76.08,60 60,76.08 60,96 C60,115.92 76.08,132 96,132 C115.92,132 132,115.92 132,96 C132,76.08 115.92,60 96,60 z" fill="#212121"/>
      </g>
      <path d="M43,42.158 L184.92,42.158 L184.92,186.077 L43,186.077 z M96,60.158 C115.92,60.158 132,76.238 132,96.158 C132,116.078 115.92,132.158 96,132.158 C76.08,132.158 60,116.078 60,96.158 C60,76.238 76.08,60.158 96,60.158 z M96,44.158 C67.28,44.158 44,67.438 44,96.158 C44,124.878 67.28,148.158 96,148.158 C108.88,148.158 120.72,143.438 129.84,135.598 L132,137.837 L132,144.158 L172,184.077 L183.92,172.158 L144,132.158 L137.68,132.158 L135.44,129.997 C143.28,120.878 148,109.038 148,96.158 C148,67.438 124.72,44.158 96,44.158 z" clip-path="url(#Clip_6)" filter="url(#InnerShadow_7)" fill="rgba(0,0,0,0.2)" id="Magnifier_Shade"/>
      <path d="M43,42 L184.92,42 L184.92,185.92 L43,185.92 z M96,60 C115.92,60 132,76.08 132,96 C132,115.92 115.92,132 96,132 C76.08,132 60,115.92 60,96 C60,76.08 76.08,60 96,60 z M96,44 C67.28,44 44,67.28 44,96 C44,124.72 67.28,148 96,148 C108.88,148 120.72,143.28 129.84,135.44 L132,137.68 L132,144 L172,183.92 L183.92,172 L144,132 L137.68,132 L135.44,129.84 C143.28,120.72 148,108.88 148,96 C148,67.28 124.72,44 96,44 z" clip-path="url(#Clip_8)" filter="url(#InnerShadow_9)" fill="rgba(0,0,0,0.2)" id="Magnifier_Tint"/>
    </g>
    <path d="M96,132 C76.118,132 60,115.882 60,96 C60,76.118 76.118,60 96,60 C115.882,60 132,76.118 132,96 C132,115.882 115.882,132 96,132 z" fill="#FFFFFF" id="Magnified_Background"/>
    <g id="Inner_Hex">
      <path d="M108,75.215 L120,96 L108,116.785 L84,116.785 L72,96 L84,75.215 L108,75.215 z" clip-path="url(#Clip_10)" filter="url(#Shadow_11)" fill="rgba(0,0,0,0.2)"/>
      <path d="M84,116.785 L72,96 L84,75.215 L108,75.215 L120,96 L108,116.785 z" fill="#FFC107"/>
      <path d="M71,73.215 L121,73.215 L121,118.785 L71,118.785 z M108,75.215 L84,75.215 L72,96 L84,116.785 L108,116.785 L120,96 L108,75.215 z" clip-path="url(#Clip_12)" filter="url(#InnerShadow_13)" fill="rgba(0,0,0,0.2)"/>
    </g>
    <path d="M71,73.215 L121,73.215 L121,118.785 L71,118.785 z M108,75.215 L84,75.215 L72,96 L84,116.785 L108,116.785 L120,96 L108,75.215 z" clip-path="url(#Clip_14)" filter="url(#InnerShadow_15)" fill="rgba(0,0,0,0.2)" id="Inner_Hex_Shade"/>
    <path d="M-192,-192 L192,-192 L192,192 L-192,192 L-192,-192 z" clip-path="url(#Silhouette)" fill="url(#Gradient_1)" id="Finish"/>
  </g>
</svg>
